<svg width="20" height="20" viewBox="0 0 20 20" fill="none" xmlns="http://www.w3.org/2000/svg">
<g opacity="0.2">
<path fill-rule="evenodd" clip-rule="evenodd" d="M13.5505 6.87275C13.6746 6.93649 13.7839 7.02223 13.8722 7.12508C13.9605 7.22793 14.0261 7.34587 14.0651 7.47216C14.1041 7.59846 14.1159 7.73063 14.0997 7.86114C14.0835 7.99164 14.0397 8.11792 13.9708 8.23275L10.9694 13.2328C10.9004 13.3475 10.8077 13.4486 10.6965 13.5302C10.5854 13.6118 10.4579 13.6724 10.3215 13.7084C10.185 13.7444 10.0423 13.7553 9.9013 13.7402C9.76035 13.7252 9.62397 13.6846 9.49996 13.6208C9.37596 13.5569 9.26674 13.4711 9.17856 13.3682C9.09039 13.2654 9.02496 13.1474 8.98604 13.0211C8.94711 12.8948 8.93544 12.7627 8.95169 12.6322C8.96794 12.5018 9.0118 12.3755 9.08075 12.2608L12.0811 7.26075C12.1501 7.14597 12.2428 7.04489 12.3539 6.96327C12.4651 6.88166 12.5925 6.8211 12.729 6.78507C12.8654 6.74904 13.0082 6.73824 13.1492 6.75329C13.2901 6.76833 13.4265 6.80893 13.5505 6.87275Z" fill="url(#paint0_linear_18_94)"/>
<path fill-rule="evenodd" clip-rule="evenodd" d="M6.18049 9.89983C6.35951 9.69292 6.61996 9.56027 6.90461 9.53101C7.18925 9.50176 7.4748 9.57831 7.6985 9.74383L10.7 11.9658C10.8108 12.0479 10.903 12.1494 10.9715 12.2645C11.0399 12.3795 11.0832 12.506 11.0988 12.6365C11.1145 12.7671 11.1022 12.8992 11.0627 13.0254C11.0232 13.1515 10.9572 13.2693 10.8685 13.3718C10.7798 13.4744 10.6702 13.5598 10.5459 13.6231C10.4215 13.6865 10.2849 13.7265 10.1439 13.741C10.0028 13.7555 9.86004 13.7441 9.72373 13.7076C9.58741 13.671 9.46022 13.6099 9.34941 13.5278L6.34796 11.3048C6.12441 11.1391 5.98108 10.8981 5.94947 10.6346C5.91787 10.3712 6.00165 10.1069 6.18049 9.89983Z" fill="url(#paint1_linear_18_94)"/>
<path fill-rule="evenodd" clip-rule="evenodd" d="M11.3127 4.43777C11.1794 4.31454 10.9987 4.24532 10.8103 4.24532C10.6219 4.24532 10.4412 4.31454 10.3079 4.43777C9.32797 5.34377 7.75918 5.90177 6.37946 5.83777C6.27993 5.83235 6.1803 5.84658 6.08716 5.87951C5.99403 5.91244 5.90952 5.96332 5.83924 6.02877C5.7713 6.09116 5.71785 6.16574 5.68218 6.24794C5.6465 6.33014 5.62936 6.41822 5.6318 6.50677C5.64692 7.22677 5.45137 7.94577 5.19422 8.53677C4.93708 9.12877 4.53948 9.77177 3.98954 10.2818C3.85639 10.4051 3.78161 10.5724 3.78161 10.7468C3.78161 10.9211 3.85639 11.0884 3.98954 11.2118C4.95437 12.1058 5.60371 13.5128 5.6318 14.7778C5.63471 14.9474 5.70915 15.1093 5.83924 15.2288C5.96315 15.3449 6.12984 15.4135 6.30599 15.4208C7.0677 15.4558 7.82509 15.6638 8.4593 15.9238C9.0946 16.1848 9.76879 16.5648 10.3068 17.0638C10.4401 17.187 10.6208 17.2562 10.8092 17.2562C10.9977 17.2562 11.1784 17.187 11.3117 17.0638C11.8508 16.5648 12.525 16.1848 13.1592 15.9238C13.7945 15.6638 14.553 15.4558 15.3125 15.4208C15.4887 15.4135 15.6553 15.3449 15.7793 15.2288C15.9097 15.1094 15.9846 14.9475 15.9878 14.7778C16.0159 13.5128 16.6641 12.1058 17.63 11.2118C17.7632 11.0884 17.838 10.9211 17.838 10.7468C17.838 10.5724 17.7632 10.4051 17.63 10.2818C17.079 9.77177 16.6825 9.12877 16.4254 8.53677C16.1682 7.94577 15.9716 7.22677 15.9878 6.50677C15.9901 6.41815 15.9728 6.33002 15.9369 6.24782C15.901 6.16562 15.8474 6.09107 15.7793 6.02877C15.7092 5.96327 15.6249 5.91228 15.532 5.87918C15.439 5.84608 15.3395 5.83163 15.2401 5.83677C13.8593 5.90177 12.2905 5.34377 11.3127 4.43777ZM3.47201 6.54577C3.48821 7.30477 3.04199 8.33077 2.4618 8.86677C2.19496 9.11361 1.98329 9.40669 1.83887 9.72927C1.69445 10.0518 1.62012 10.3976 1.62012 10.7468C1.62012 11.0959 1.69445 11.4417 1.83887 11.7643C1.98329 12.0869 2.19496 12.3799 2.4618 12.6268C3.03443 13.1548 3.4558 14.0708 3.47201 14.8188C3.48713 15.4808 3.76697 16.1388 4.31259 16.6428C4.81586 17.1098 5.48934 17.3862 6.20119 17.4178C7.05581 17.4578 8.17515 17.9178 8.78019 18.4778C9.04686 18.7246 9.36345 18.9204 9.71187 19.054C10.0603 19.1875 10.4337 19.2563 10.8109 19.2563C11.188 19.2563 11.5614 19.1875 11.9099 19.054C12.2583 18.9204 12.5749 18.7246 12.8415 18.4778C13.4466 17.9178 14.5659 17.4578 15.4206 17.4178C16.1324 17.3862 16.8059 17.1098 17.3092 16.6428C17.8335 16.1583 18.1345 15.5044 18.1487 14.8188C18.1659 14.0708 18.5873 13.1548 19.1589 12.6258C19.4255 12.379 19.6371 12.0859 19.7814 11.7635C19.9257 11.441 20 11.0953 20 10.7463C20 10.3972 19.9257 10.0516 19.7814 9.72909C19.6371 9.40661 19.4255 9.11359 19.1589 8.86677C18.5797 8.33077 18.1324 7.30477 18.1497 6.54677C18.1579 6.18889 18.0876 5.83319 17.9431 5.50113C17.7986 5.16908 17.583 4.86756 17.3092 4.61477C17.0253 4.35146 16.6848 4.14638 16.3097 4.01286C15.9346 3.87934 15.5334 3.82037 15.1321 3.83977C14.3606 3.87577 13.3872 3.52977 12.8415 3.02377C12.5749 2.7768 12.2582 2.58088 11.9097 2.44722C11.5612 2.31355 11.1876 2.24475 10.8103 2.24475C10.4331 2.24475 10.0595 2.31355 9.71098 2.44722C9.36246 2.58088 9.0458 2.7768 8.77911 3.02377C8.23457 3.52877 7.26002 3.87577 6.48858 3.83977C6.08744 3.82051 5.68641 3.87955 5.31153 4.01307C4.93665 4.14659 4.5963 4.35159 4.31259 4.61477C4.03889 4.86745 3.82331 5.1688 3.67884 5.50067C3.53438 5.83254 3.46402 6.18805 3.47201 6.54577Z" fill="url(#paint2_linear_18_94)"/>
</g>
<path fill-rule="evenodd" clip-rule="evenodd" d="M12.2075 6.30985C12.2695 6.34176 12.3241 6.38466 12.3682 6.4361C12.4122 6.48755 12.445 6.54653 12.4644 6.60967C12.4839 6.67281 12.4897 6.73889 12.4816 6.80412C12.4735 6.86935 12.4515 6.93246 12.4171 6.98985L9.41668 11.9899C9.38221 12.0472 9.33585 12.0978 9.28027 12.1386C9.22469 12.1794 9.16097 12.2097 9.09275 12.2277C9.02452 12.2457 8.95314 12.2511 8.88266 12.2436C8.81218 12.2361 8.74399 12.2158 8.68199 12.1839C8.61998 12.1519 8.56538 12.109 8.52129 12.0576C8.4772 12.0062 8.44449 11.9472 8.42503 11.884C8.40556 11.8209 8.39973 11.7548 8.40785 11.6896C8.41598 11.6243 8.43791 11.5612 8.47238 11.5039L11.4728 6.50385C11.5072 6.44646 11.5536 6.39592 11.6092 6.35511C11.6647 6.3143 11.7285 6.28403 11.7967 6.26601C11.8649 6.248 11.9363 6.2426 12.0068 6.25012C12.0773 6.25764 12.1454 6.27794 12.2075 6.30985Z" fill="url(#paint3_linear_18_94)"/>
<path fill-rule="evenodd" clip-rule="evenodd" d="M5.52161 9.21176C5.6111 9.10845 5.74122 9.04222 5.88341 9.0276C6.0256 9.01297 6.16826 9.05115 6.28007 9.13376L9.28152 11.3558C9.39342 11.4386 9.46516 11.5593 9.48097 11.6911C9.49677 11.8229 9.45535 11.9552 9.3658 12.0588C9.27625 12.1623 9.14592 12.2287 9.00348 12.2434C8.86104 12.258 8.71815 12.2196 8.60625 12.1368L5.60588 9.91576C5.55046 9.87473 5.50431 9.824 5.47008 9.76646C5.43584 9.70892 5.4142 9.6457 5.40637 9.58042C5.39854 9.51513 5.40469 9.44906 5.42447 9.38598C5.44424 9.32289 5.47725 9.26403 5.52161 9.21276" fill="url(#paint4_linear_18_94)"/>
<path fill-rule="evenodd" clip-rule="evenodd" d="M3.4558 3.82279C3.28491 3.98039 3.15036 4.16844 3.06029 4.37556C2.97022 4.58269 2.9265 4.80458 2.93179 5.02779C2.94259 5.5778 2.79133 6.15979 2.572 6.66379C2.35267 7.1688 2.0253 7.6858 1.60609 8.0748C1.43971 8.22876 1.30773 8.41155 1.21768 8.61273C1.12763 8.81391 1.08129 9.02954 1.08129 9.2473C1.08129 9.46505 1.12763 9.68068 1.21768 9.88186C1.30773 10.083 1.43971 10.2658 1.60609 10.4198C2.3732 11.1308 2.9091 12.2928 2.93179 13.2988C2.94032 13.7184 3.12086 14.1193 3.43683 14.4203C3.7528 14.7213 4.18057 14.8998 4.63347 14.9198C5.22771 14.9468 5.85329 15.1138 6.40215 15.3398C6.94993 15.5648 7.50311 15.8818 7.9234 16.2708C8.08975 16.4248 8.28724 16.5469 8.50461 16.6303C8.72197 16.7136 8.95494 16.7565 9.19021 16.7565C9.42549 16.7565 9.65846 16.7136 9.87582 16.6303C10.0932 16.5469 10.2907 16.4248 10.457 16.2708C10.8773 15.8818 11.4294 15.5648 11.9783 15.3388C12.5271 15.1138 13.1527 14.9468 13.747 14.9198C14.1999 14.9001 14.6279 14.7216 14.9439 14.4205C15.2599 14.1195 15.4404 13.7185 15.4486 13.2988C15.4702 12.2928 16.0061 11.1308 16.7743 10.4188C17.11 10.1079 17.2986 9.68634 17.2986 9.2468C17.2986 8.80725 17.11 8.3857 16.7743 8.0748C16.354 7.6858 16.0278 7.1688 15.8084 6.66479C15.588 6.15979 15.4368 5.57679 15.4486 5.02779C15.4538 4.8045 15.4099 4.58257 15.3196 4.37544C15.2294 4.16831 15.0946 3.9803 14.9235 3.82279C14.7468 3.65843 14.5346 3.53038 14.3007 3.44698C14.0669 3.36359 13.8168 3.32673 13.5665 3.33879C12.4904 3.38879 11.2187 2.93679 10.457 2.23179C10.2907 2.0778 10.0932 1.95564 9.87582 1.8723C9.65846 1.78896 9.42549 1.74606 9.19021 1.74606C8.95494 1.74606 8.72197 1.78896 8.50461 1.8723C8.28724 1.95564 8.08975 2.0778 7.9234 2.23179C7.16169 2.93679 5.89002 3.38879 4.81391 3.33879C4.56349 3.32659 4.31311 3.36338 4.0791 3.44678C3.84508 3.53017 3.6327 3.6583 3.4558 3.82279ZM1.85135 5.04579C1.86756 5.80379 1.42134 6.83079 0.841142 7.36679C0.574467 7.61361 0.362929 7.90663 0.218606 8.22912C0.0742823 8.5516 0 8.89724 0 9.24629C0 9.59535 0.0742823 9.94099 0.218606 10.2635C0.362929 10.586 0.574467 10.879 0.841142 11.1258C1.41377 11.6548 1.83514 12.5708 1.85135 13.3178C1.86648 13.9798 2.14631 14.6378 2.69193 15.1428C3.1952 15.6098 3.86868 15.8862 4.58053 15.9178C5.43516 15.9578 6.55449 16.4168 7.15953 16.9778C7.4262 17.2246 7.74279 17.4204 8.09122 17.554C8.43964 17.6876 8.81308 17.7563 9.19021 17.7563C9.56735 17.7563 9.94079 17.6876 10.2892 17.554C10.6376 17.4204 10.9542 17.2246 11.2209 16.9778C11.8259 16.4168 12.9453 15.9578 13.7999 15.9178C14.5117 15.8862 15.1852 15.6098 15.6885 15.1428C16.2131 14.658 16.5141 14.0038 16.528 13.3178C16.5453 12.5708 16.9667 11.6548 17.5382 11.1258C17.8049 10.879 18.0164 10.586 18.1607 10.2635C18.3051 9.94099 18.3793 9.59535 18.3793 9.24629C18.3793 8.89724 18.3051 8.5516 18.1607 8.22912C18.0164 7.90663 17.8049 7.61361 17.5382 7.36679C16.9591 6.83079 16.5118 5.80379 16.5291 5.04679C16.5374 4.68874 16.4671 4.33285 16.3227 4.00062C16.1782 3.66839 15.9625 3.3667 15.6885 3.11379C15.4047 2.85049 15.0641 2.64541 14.6891 2.51189C14.314 2.37836 13.9127 2.31939 13.5114 2.33879C12.74 2.37479 11.7665 2.02879 11.2209 1.52279C10.9542 1.27582 10.6375 1.07991 10.289 0.946241C9.9405 0.812573 9.56693 0.743774 9.18967 0.743774C8.81241 0.743774 8.43885 0.812573 8.09032 0.946241C7.7418 1.07991 7.42514 1.27582 7.15845 1.52279C6.61391 2.02879 5.63936 2.37479 4.86793 2.33879C4.46679 2.31953 4.06575 2.37858 3.69087 2.51209C3.31599 2.64561 2.97564 2.85062 2.69193 3.11379C2.4181 3.36659 2.20244 3.66811 2.05797 4.00016C1.9135 4.33221 1.84321 4.68791 1.85135 5.04579Z" fill="url(#paint5_linear_18_94)"/>
<defs>
<linearGradient id="paint0_linear_18_94" x1="11.5257" y1="6.7467" x2="11.5257" y2="13.7468" gradientUnits="userSpaceOnUse">
<stop stop-color="#9216BD"/>
<stop offset="1" stop-color="#D531E3"/>
</linearGradient>
<linearGradient id="paint1_linear_18_94" x1="8.52415" y1="9.5249" x2="8.52415" y2="13.7471" gradientUnits="userSpaceOnUse">
<stop stop-color="#9216BD"/>
<stop offset="1" stop-color="#D531E3"/>
</linearGradient>
<linearGradient id="paint2_linear_18_94" x1="10.8101" y1="2.24475" x2="10.8101" y2="19.2563" gradientUnits="userSpaceOnUse">
<stop stop-color="#9216BD"/>
<stop offset="1" stop-color="#D531E3"/>
</linearGradient>
<linearGradient id="paint3_linear_18_94" x1="10.4447" y1="6.24683" x2="10.4447" y2="12.2469" gradientUnits="userSpaceOnUse">
<stop stop-color="#9216BD"/>
<stop offset="1" stop-color="#D531E3"/>
</linearGradient>
<linearGradient id="paint4_linear_18_94" x1="7.44367" y1="9.02454" x2="7.44367" y2="12.2464" gradientUnits="userSpaceOnUse">
<stop stop-color="#9216BD"/>
<stop offset="1" stop-color="#D531E3"/>
</linearGradient>
<linearGradient id="paint5_linear_18_94" x1="9.18967" y1="0.743774" x2="9.18967" y2="17.7563" gradientUnits="userSpaceOnUse">
<stop stop-color="#9216BD"/>
<stop offset="1" stop-color="#D531E3"/>
</linearGradient>
</defs>
</svg>
